<?xml version="1.0" standalone="no"?><!DOCTYPE svg PUBLIC "-//W3C//DTD SVG 1.1//EN" "http://www.w3.org/Graphics/SVG/1.1/DTD/svg11.dtd"><svg class="icon" width="40px" height="40.00px" viewBox="0 0 1024 1024" version="1.1" xmlns="http://www.w3.org/2000/svg"><path d="M187.6 771.8c-0.6-0.6-14.4-16-4.8-38.3l12.9 5.5c-5.9 13.9 2 23 2.3 23.4l-10.4 9.4z" fill="#cc1d75" /><path d="M187.4 759l-12.5-6.3C205.3 692 303 271.4 304 267.2l13.6 3.2c-4 17.3-99 426.4-130.2 488.6zM839.1 771.8l-10.3-9.5 5.1 4.7-5.2-4.7c0.3-0.4 8.2-9.6 2.3-23.4l12.9-5.5c9.5 22.5-4.2 37.8-4.8 38.4z" fill="#cc1d75" /><path d="M839.2 759C808 696.8 713 287.7 709 270.4l13.6-3.2c1 4.2 98.7 424.8 129.1 485.5l-12.5 6.3z" fill="#cc1d75" /><path d="M518.4 330.7c-63.7 0.7-127-9-187.7-28.1-11.4-3.6-17.8-15.7-14.3-27.2l2.5-8.3 180.9 36L705.7 267l3.2 6.1c1.6 3 2.4 6.2 2.5 9.4 0.3 9.8-6.5 18.4-15.9 21l-17.8 5c-47.4 13.2-96.3 20.6-145.5 22-4.5 0-9.1 0.1-13.8 0.2zM514.4 247.7s-153.5 1.9-199.6-32.6h397c-46.1 34.5-199.6 32.6-199.6 32.6" fill="#b9c1c4" /><path d="M514.4 247.7s-153.5 1.9-199.6-32.6L298.9 263c66.1 44.3 215.5 39.9 215.5 39.9s151.8 0.1 213.2-39.9l-15.9-47.9c-46.1 34.5-199.6 32.6-199.6 32.6" fill="#ff64cb" /><path d="M512.2 820.9v-14c244.5 0 310.6-38.8 325-50.7 0.3-0.2 0.5-0.4 0.7-0.6 5.7-5.1 7.7-13.2 5.1-20.7C800.4 611.6 717.1 251.6 713.3 231c-1.9-10.3-8.2-11.8-9.8-12H512.1v-14h192.1c6.5 0.3 19.6 5.7 22.9 23.4 3.8 20.5 86.7 379.1 129.2 501.9 4.4 12.9 0.9 26.9-9 35.7-0.4 0.3-0.7 0.6-1.1 1-19.7 16.2-91.7 53.9-334 53.9z"  /><path d="M517.5 254.7h-5.4l0.2-14c1.5 0 151.6 1.5 195.3-31.2l8.4 11.2c-43 32.2-170.1 34-198.5 34zM579.8 818.7c-3.7 0-6.8-2.9-7-6.7l-15.6-373c-0.2-3.9 2.8-7.1 6.7-7.3 3.9-0.1 7.1 2.8 7.3 6.7l15.6 373.1c0.2 3.9-2.8 7.1-6.7 7.3-0.1-0.1-0.2-0.1-0.3-0.1zM563 412.8c-3.7 0-6.8-3-7-6.7l-0.4-10.6c-0.1-3.9 2.9-7.1 6.7-7.3 3.9-0.1 7.1 2.9 7.3 6.7l0.4 10.6c0.1 3.9-2.9 7.1-6.7 7.3h-0.3zM696.6 284.6c-3.1 0-6-2.1-6.8-5.3l-6.1-23.9c-1-3.7 1.3-7.6 5-8.5 3.7-1 7.6 1.3 8.5 5l6.1 23.9c1 3.7-1.3 7.6-5 8.5-0.5 0.3-1.1 0.3-1.7 0.3zM663.8 294c-3.3 0-6.2-2.3-6.9-5.7l-4.6-24.3c-0.7-3.8 1.8-7.5 5.6-8.2 3.8-0.7 7.5 1.8 8.2 5.6l4.6 24.3c0.7 3.8-1.8 7.5-5.6 8.2-0.5 0.1-0.9 0.1-1.3 0.1zM627.8 300.3c-3.6 0-6.6-2.7-7-6.3l-2.4-24.6c-0.4-3.8 2.4-7.3 6.3-7.7 3.8-0.4 7.3 2.4 7.7 6.3l2.4 24.6c0.4 3.8-2.4 7.3-6.3 7.7h-0.7zM589.8 303.7c-3.6 0-6.7-2.8-7-6.5l-1.6-22.9c-0.3-3.9 2.6-7.2 6.5-7.5 3.9-0.3 7.2 2.6 7.5 6.5l1.6 22.9c0.3 3.9-2.6 7.2-6.5 7.5h-0.5zM552 305.3c-3.9 0-7-3.2-7-7l0.2-21.9c0-3.9 3.1-7 7-7s7 3.2 7 7l-0.2 21.9c0 3.9-3.1 7-7 7zM513 305.7c-3.9 0-7-3.2-7-7.1l0.2-21.9c0-3.8 3.2-6.9 7-6.9h0.1c3.9 0 7 3.2 6.9 7.1l-0.2 21.9c0 3.8-3.1 6.9-7 6.9z"  /><path d="M514.4 820.9c-242.4 0-314.3-37.7-334-53.9-0.4-0.3-0.8-0.6-1.1-1-9.9-8.8-13.5-22.8-9-35.7C212.8 607.5 295.7 249 299.5 228.4c3.3-17.7 16.4-23.1 22.9-23.4h192.1v14H323c-1.7 0.2-7.9 1.7-9.8 12-3.8 20.6-87.1 380.6-129.7 503.9-2.6 7.5-0.6 15.6 5.1 20.7 0.2 0.2 0.5 0.4 0.7 0.6 14.4 11.9 80.6 50.8 325 50.8v13.9z"  /><path d="M509 254.7c-28.3 0-155.4-1.8-198.4-34l8.4-11.2c43.7 32.7 193.8 31.2 195.3 31.2l0.2 14H509zM502.1 310.1c-37.8 0-150.5-3.3-207.1-41.2l7.8-11.6c63.5 42.5 210 38.8 211.4 38.7h0.2c1.9 0 150.5-0.4 209.3-38.8l7.6 11.7c-62.1 40.5-209.1 41-216.9 41-1 0.1-5.4 0.2-12.3 0.2zM294.9 805.1c-0.4 0-0.8 0-1.3-0.1-3.8-0.7-6.3-4.3-5.6-8.1l79.4-437.2c0.7-3.8 4.3-6.3 8.1-5.6 3.8 0.7 6.3 4.3 5.6 8.1l-79.4 437.2c-0.5 3.3-3.5 5.7-6.8 5.7zM731.5 805.6c-3.3 0-6.3-2.4-6.9-5.8l-79.4-437.2c-0.7-3.8 1.8-7.4 5.6-8.1 3.8-0.7 7.4 1.8 8.1 5.6l79.4 437.2c0.7 3.8-1.8 7.4-5.6 8.1-0.4 0.2-0.8 0.2-1.2 0.2zM446.8 819.8h-0.4c-3.9-0.2-6.8-3.5-6.6-7.4l24.4-424.9c0.2-3.9 3.5-6.8 7.4-6.6 3.9 0.2 6.8 3.5 6.6 7.4l-24.4 424.9c-0.3 3.8-3.4 6.6-7 6.6z"  /><path d="M329.9 285c-0.6 0-1.2-0.1-1.7-0.2-3.7-1-6-4.8-5-8.5l6.1-23.9c1-3.7 4.8-6 8.5-5s6 4.8 5 8.5l-6.1 23.9c-0.9 3-3.7 5.2-6.8 5.2zM362.8 294c-0.4 0-0.9 0-1.3-0.1-3.8-0.7-6.3-4.4-5.6-8.2l4.6-24.3c0.7-3.8 4.4-6.3 8.2-5.6 3.8 0.7 6.3 4.4 5.6 8.2l-4.6 24.3c-0.7 3.4-3.6 5.7-6.9 5.7zM398.8 300.3h-0.7c-3.8-0.4-6.7-3.8-6.3-7.7l2.4-24.6c0.4-3.8 3.8-6.7 7.7-6.3 3.8 0.4 6.7 3.8 6.3 7.7l-2.4 24.6c-0.4 3.6-3.5 6.3-7 6.3zM436.7 303.7h-0.5c-3.9-0.3-6.8-3.6-6.5-7.5l1.6-22.9c0.3-3.9 3.6-6.8 7.5-6.5 3.9 0.3 6.8 3.6 6.5 7.5l-1.6 22.9c-0.3 3.7-3.3 6.5-7 6.5zM474.5 305.3c-3.8 0-7-3.1-7-7l-0.2-21.9c0-3.9 3.1-7 7-7 3.8 0 7 3.1 7 7l0.2 21.9c0 3.8-3.1 7-7 7z"  /></svg>