<?xml version="1.0" standalone="no"?><!DOCTYPE svg PUBLIC "-//W3C//DTD SVG 1.1//EN" "http://www.w3.org/Graphics/SVG/1.1/DTD/svg11.dtd"><svg class="icon" width="40px" height="40.00px" viewBox="0 0 1024 1024" version="1.1" xmlns="http://www.w3.org/2000/svg"><path d="M338 89v53h354V89z" fill="#91d0ed" /><path d="M630 154h-23.5v9c0 5-4 9-9 9s-9-4-9-9v-9H563v59.3c0 1.2-0.3 2.5-0.8 3.6-10.4 23.8-28.5 36.6-53 37.1-5.1 0.1-9.2-3.9-9.2-9v-91h-64.5v15c0 5-4 9-9 9s-9-4-9-9v-15H402c0.6 52.8-23.1 89-70 106.7V924h38.6L407 333.4c0.3-5 4.6-8.7 9.5-8.4s8.7 4.6 8.4 9.5L388.6 924h40l72-582.5c1.7-14 22-14 23.8 0L597.8 924h40.5L597 333.6c-0.3-5 3.4-9.3 8.4-9.6s9.3 3.4 9.6 8.4L656.3 924H691V257c-40.9-18.9-61.5-53.7-61-103z m18 0c-0.5 39.2 13.7 66.4 43 82.8v-47.9l-9.2-34.9H648z m-264 0h-35.7c-0.4 0.6-0.9 1.1-1.4 1.6-10.3 10-14.9 17.9-14.9 23v62.7c35.4-15.7 52.5-44.3 52-87.3z m319.9-10.3c0 0.1 0 0.2 0.1 0.3l10.6 40.3c0.3 1 0.4 2 0.4 3.1V936c0 6.6-5.4 12-12 12H587.2c-6 0-11.2-4.5-11.9-10.5l-62.7-497.7-61.5 497.6c-0.7 6-5.9 10.5-11.9 10.5H320c-6.6 0-12-5.4-12-12V178.6c0-11.7 6.2-23.5 18-35.9V89c0-6.6 5.4-12 12-12h354c6.6 0 12 5.4 12 12v53c0 0.6 0 1.1-0.1 1.7zM545 154h-27v80.9c12-2.7 20.8-10.4 27-23.6V154z m-27-53v29h70.5v-29H518z m-18 0h-64.5v29H500v-29z m106.5 0v29H680v-29h-73.5z m-189 0H350v29h67.5v-29z"  /></svg>