<?xml version="1.0" standalone="no"?><!DOCTYPE svg PUBLIC "-//W3C//DTD SVG 1.1//EN" "http://www.w3.org/Graphics/SVG/1.1/DTD/svg11.dtd"><svg class="icon" width="40px" height="40.00px" viewBox="0 0 1024 1024" version="1.1" xmlns="http://www.w3.org/2000/svg"><path d="M639.606 92.163l0.197-0.149c55.925 21.683 107.26 45.183 154.003 70.5l99.195 618.98-125.728 48.506H256.728L131.001 781.495l99.194-618.98c46.743-25.318 98.078-48.818 154.003-70.5 0.066 0.049 0.131-0.05 0.197 0l255.21 0.148z" fill="#ffffff" /><path d="M141 731.495L131 781l124.806 49v-54.214z" fill="#6eba8f" /><path d="M258.326 768.761a7 7 0 1 1-5.04 13.061L138.482 737.531a7 7 0 0 1 5.04-13.062l114.805 44.292z" fill="#474747" /><path d="M882.806 731.495l10 49.505-124.805 49v-54.214z" fill="#6eba8f" /><path d="M766.481 768.761a7 7 0 1 0 5.04 13.061l114.805-44.291a7 7 0 0 0-5.04-13.062l-114.805 44.292z" fill="#474747" /><path d="M385.507 99.015C331.53 119.994 281.88 142.668 236.56 167.034l-97.75 609.97 119.222 45.996h507.937l119.223-45.996-97.75-609.97c-45.215-24.309-94.737-46.934-148.568-67.871l-253.367-0.148z m0.67-0.26c-0.325 0.092-0.435 0.108-1.173 0.214a6.919 6.919 0 0 1-4.565-1.18 7 7 0 0 0 3.952 1.225h0.297c0.072-0.004 0.144-0.01 0.216-0.017 0.78-0.112 0.879-0.126 1.241-0.23l0.033-0.013z m-5.994-1.15z m262.15-12.117C698.527 107.274 750.13 130.898 797.14 156.358a7 7 0 0 1 3.578 5.048l99.194 618.98a7 7 0 0 1-4.392 7.638l-125.728 48.506a7 7 0 0 1-2.52 0.469H256.729a7 7 0 0 1-2.52-0.47L128.482 788.026a7 7 0 0 1-4.392-7.638l99.194-618.98a7 7 0 0 1 3.578-5.048C273.872 130.898 325.475 107.274 381.667 85.488a6.995 6.995 0 0 1 2-0.454c0.007 0 0.013-0.002 0.02-0.003a7.1 7.1 0 0 1 1.124-0.017l253.56 0.148a6.997 6.997 0 0 1 3.963 0.326z m-253.914 0.942z" fill="#474747" /><path d="M383 72c36.167 13.333 79 20 128.5 20s92.334-6.667 128.5-20l-129 154-128-154z" fill="#deeee5" /><path d="M256 365v537.17c78.67 33.22 164.004 49.83 256 49.83 24.26 0 37.427-10.342 39.5-31.026 9.855 17.58 24.869 25.733 45.042 24.46 25.11-1.584 82.263-16.005 171.459-43.265l-0.242-537.17" fill="#ffffff" /><path d="M512 959c-92.915 0-179.174-16.79-258.723-50.382a7 7 0 0 1-4.276-6.449v-537.17a7 7 0 0 1 14 0V897.508c76.605 31.658 159.587 47.492 249 47.492 20.856 0 30.842-7.844 32.534-24.724 0.683-6.81 9.725-8.694 13.072-2.724 8.537 15.23 21.004 22 38.495 20.897 23.892-1.508 79.108-15.356 164.896-41.462l-0.239-531.984a7 7 0 0 1 14-0.006l0.242 537.17a7 7 0 0 1-4.955 6.697c-89.77 27.435-147.193 41.924-173.063 43.557-17.384 1.097-31.705-4.157-42.481-15.505-6.749 14.544-21.302 22.084-42.501 22.084z" fill="#474747" /><path d="M558.5 921a7 7 0 1 1-14 0v-695a7 7 0 0 1 14 0v695zM380.58 78.568A7 7 0 1 1 385.421 65.432c35.336 13.027 77.36 19.568 126.079 19.568 48.718 0 90.742-6.54 126.078-19.568a7 7 0 1 1 4.843 13.136c-36.997 13.64-80.64 20.432-130.921 20.432-50.282 0-93.925-6.793-130.922-20.432z" fill="#474747" /><path d="M340.993 110.082L383 72l128.5 154-89.25 41.066z" fill="#6eba8f" /><path d="M681.508 110.082L639.501 72l-128.5 154 89.25 41.066z" fill="#6eba8f" /><path d="M349.686 111.649l75.71 146.265 74.871-34.45L382.3 82.083l-32.613 29.565z m-13.395-6.753L378.3 66.814a7 7 0 0 1 10.076 0.701l128.5 154c2.953 3.54 1.739 8.917-2.448 10.844l-89.25 41.066a7 7 0 0 1-9.143-3.14L334.776 113.299a7 7 0 0 1 1.515-8.404z" fill="#474747" /><path d="M597.107 257.914l-74.872-34.45 117.97-141.38 32.611 29.565-75.709 146.265z m89.104-153.018L644.204 66.814a7 7 0 0 0-10.077 0.701l-128.5 154c-2.953 3.54-1.738 8.917 2.449 10.844l89.25 41.066a7 7 0 0 0 9.143-3.14l81.257-156.985a7 7 0 0 0-1.515-8.404z" fill="#474747" /><path d="M511.001 350m-15 0a15 15 0 1 0 30 0 15 15 0 1 0-30 0Z" fill="#6eba8f" /><path d="M511.001 558m-15 0a15 15 0 1 0 30 0 15 15 0 1 0-30 0Z" fill="#6eba8f" /><path d="M511.001 766m-15 0a15 15 0 1 0 30 0 15 15 0 1 0-30 0Z" fill="#6eba8f" /><path d="M511 371c-11.597 0-21-9.402-21-21s9.403-21 21-21c11.599 0 21 9.402 21 21s-9.401 21-21 21z m0-12a9 9 0 1 0 0-18 9 9 0 0 0 0 18zM511 579c-11.597 0-21-9.402-21-21s9.403-21 21-21c11.599 0 21 9.402 21 21s-9.401 21-21 21z m0-12a9 9 0 1 0 0-18 9 9 0 0 0 0 18zM511 787c-11.597 0-21-9.402-21-21s9.403-21 21-21c11.599 0 21 9.402 21 21s-9.401 21-21 21z m0-12a9 9 0 1 0 0-18 9 9 0 0 0 0 18z" fill="#474747" /><path d="M615 385h100v42l-50 20-50-20z" fill="#ffffff" /><path d="M621 422.938l44 17.6 44-17.6v-31.938h-88v31.938z m-6-43.938h100a6 6 0 0 1 6 6v42a6 6 0 0 1-3.771 5.57l-50 20a6 6 0 0 1-4.457 0l-50-20a6 6 0 0 1-3.771-5.57v-42a6 6 0 0 1 6-6z" fill="#474747" /><path d="M615 365h100v28.889H615z" fill="#6eba8f" /><path d="M621 387.888h88v-16.888h-88v16.889z m-6-28.888h100a6 6 0 0 1 6 6v28.889a6 6 0 0 1-6 6H615a6 6 0 0 1-6-6V364.998a6 6 0 0 1 6-6z" fill="#474747" /></svg>