<?xml version="1.0" standalone="no"?><!DOCTYPE svg PUBLIC "-//W3C//DTD SVG 1.1//EN" "http://www.w3.org/Graphics/SVG/1.1/DTD/svg11.dtd"><svg class="icon" width="40px" height="40.00px" viewBox="0 0 1024 1024" version="1.1" xmlns="http://www.w3.org/2000/svg"><path d="M812.2 681.2L720 133.5c-0.7-4.1-3.9-7.4-8-8.2l-105.7-20.6-34.2-44.2c-2.6-3.3-6.8-4.6-10.5-3.5-0.8-0.2-1.7-0.4-2.6-0.4h-99-1.1c-0.1 0-0.3 0-0.4 0.1-0.2 0-0.4 0.1-0.5 0.1-0.1 0-0.2 0.1-0.4 0.1s-0.4 0.1-0.6 0.2c-0.1 0-0.2 0.1-0.4 0.1-0.2 0.1-0.4 0.1-0.5 0.2-0.1 0.1-0.3 0.1-0.4 0.2-0.1 0.1-0.3 0.1-0.4 0.2-0.2 0.1-0.3 0.2-0.5 0.3-0.1 0.1-0.2 0.1-0.4 0.2s-0.3 0.2-0.4 0.3l-0.3 0.3c-0.1 0.1-0.3 0.2-0.4 0.3l-0.3 0.3-0.3 0.3c-0.1 0.1-0.2 0.3-0.4 0.4l-0.1 0.1-34.2 44.1L312 125c-4.1 0.8-7.3 4-8 8.2l-92.2 547.7c-0.5 2.9 0.3 5.9 2.2 8.1 1.9 2.2 4.7 3.5 7.6 3.5h73.3c4.7 0 8.8-3.3 9.8-7.8l65.5-296.8 10.1 46.5-6 40.5L325.4 673c-0.2 0.7-0.3 1.5-0.3 2.3l-3.8 265.2c-0.1 5.1 3.8 9.5 8.9 10.1 6 0.7 147.3 16.4 181.8 16.4 34.4 0 175.8-15.7 181.8-16.4 5.1-0.6 9-4.9 8.9-10.1l-3.8-265.2c0-0.8-0.1-1.5-0.3-2.3l-48.9-198.2-4.8-28.4c-0.1-0.5-0.2-1-0.4-1.5l16.6-5.3c1.3-0.4 2.6-1 3.8-1.7L719.3 685c1 4.6 5.1 7.8 9.8 7.8h73.3c2.9 0 5.7-1.3 7.6-3.5 1.9-2.2 2.7-5.2 2.2-8.1z m-216-80.2c-1.4-33.6-4.9-108.2-6.2-134.7 7 15.8 23.5 54.9 31.7 90 8.7 37.6 10.2 107.3 10.5 129.4L596.4 674c0.4-10.2 1.2-39.6-0.2-73z m-15.1-148.9h-12.3c-0.6-0.2-1.2-0.4-1.9-0.4s-1.3 0.1-1.9 0.4h-12.3v-23.5h28.5v23.5zM447.8 135.5h-28.4l32-41.2c1.1 9.7 3.2 21.1 6.8 32.1l-10.2 9.1h-0.2z m97.9-11.2c-0.7 1.1-1.2 2.4-1.5 3.7-1.5 3.5-3.2 6.8-5.1 9.9-4.7 7.6-13.8 20.9-27 39.8-11.6-16.7-21.7-31.4-27-39.8-1.9-3-3.5-6.2-5-9.6-0.1-2-0.9-3.9-2.2-5.6-6-16.7-7.5-35.3-7.9-46h84.1c-0.3 11-1.9 30.5-8.4 47.6z m-79.2 21.4c0.5 1 1.1 1.9 1.7 2.8 11.9 18.9 46.2 67.4 70.2 100.9l-120.5-60.2 48.6-43.5z m57.9 49.4c15.6-22.3 26.3-38 31.7-46.6 0.5-0.8 0.9-1.5 1.4-2.3l48.9 43.7-63.3 31.6c-6.1-8.5-12.5-17.5-18.7-26.4z m51.1-59.6L566 127c3.8-11.3 5.8-22.8 7-32.7l32 41.2h-29.5zM380.1 339.3c-1-4.6-5.1-7.9-9.8-7.9-4.7 0-8.8 3.3-9.8 7.8l-73.7 333.6h-53.4l89-529.2 76.8-15-8.3 10.6c-2.3 3-2.8 7.1-1.1 10.5s5.2 5.6 9 5.6h26.6l-32 28.6c-2.5 2.2-3.7 5.5-3.2 8.8 0.4 3.3 2.5 6.1 5.4 7.6l166.1 83v135.1h-14.3c-0.2 0-0.4 0-0.6 0.1L490.7 391c-4.1-2-8.7-2.3-13-0.7-4.3 1.5-7.7 4.7-9.6 8.8l-6.9 15.2c-0.4-0.1-0.7-0.1-1.1-0.1h-63.7l-16.3-74.9zM535.8 674L500 685.8c0.3-22.1 1.8-91.8 10.5-129.4 8.1-35.1 24.7-74.2 31.7-90-1.3 26.4-4.8 101-6.2 134.7-1.4 33.3-0.6 62.7-0.2 72.9zM400.2 432.3l-1.8-8.2h60.5c0.1 2.1 0.6 4.1 1.5 6.1 2 4.6 6 8.1 10.8 9.7l53.5 17.2H397.2l3.1-21.3c0.2-1.1 0.1-2.3-0.1-3.5z m136.6 18.2l-62.6-20.1c-2.1-0.7-3.8-2.2-4.7-4.2-0.9-2-0.9-4.3 0-6.3l7.6-16.6c0.8-1.7 2.1-2.9 3.9-3.6 1.7-0.6 3.6-0.5 5.3 0.3l54 26.5-3.5 24zM345.1 677l48.7-197.5c0.1-0.3 0.1-0.6 0.2-0.9l1.7-11.5h135.2c-7.9 18.3-22.6 54.3-30.2 87-10.7 46-10.8 134.9-10.8 138.6 0 1.6 0.8 3.1 2.1 4.1 0.9 0.6 1.9 0.9 2.9 0.9 0.5 0 1.1-0.1 1.6-0.3l46-15.2c2.1-0.7 3.5-2.7 3.4-5 0-0.3-1.7-35 0-75.9 1.5-35.9 5.4-118.6 6.4-139.3h9.5v482c-21.8 1.9-40.4 3.2-49.9 3.2-28.5 0-138.2-11.8-170.5-15.3l3.7-254.9zM630 478.8c0 0.2 0.1 0.5 0.2 0.7L678.9 677l3.6 255c-19.9 2.2-69.1 7.5-110.7 11.2V462.1h7.9c1 20.7 5 103.4 6.4 139.3 1.7 40.8 0 75.5 0 75.9-0.1 2.2 1.3 4.3 3.4 5l46 15.2c0.5 0.2 1 0.3 1.6 0.3 1 0 2.1-0.3 2.9-0.9 1.3-0.9 2.1-2.4 2.1-4.1 0-3.8-0.1-92.6-10.8-138.6-8.7-37.6-26.8-79.5-33.2-93.9l27.2-8.7 4.7 27.2z m28-48.4l-62.6 20.1-3.5-24 54-26.5c1.7-0.8 3.5-0.9 5.3-0.3 1.7 0.6 3.1 1.9 3.9 3.6l3.9 8.7 3.3 15c-0.9 1.6-2.4 2.8-4.3 3.4z m-5-40.6c0.3-0.5 0.6-1.1 0.8-1.7l0.5 2.1c-0.5-0.2-0.9-0.3-1.3-0.4z m84.1 283.1l-73.7-333.6c-1-4.6-5.1-7.8-9.8-7.8-4.7 0-8.8 3.3-9.8 7.9l-9.4 43.4c-0.8 3.9 0.7 7.7 3.6 10l-52.8 26h-13.4V287.7c1.8-0.1 3.5-0.8 5-1.9 2.8-2 4.3-5.3 4.1-8.5 0.1-3.2-1.3-6.4-4-8.4-3.7-5.2-12-16.6-22.1-30.8l73.6-36.8c3-1.5 5-4.3 5.4-7.6 0.4-3.3-0.8-6.6-3.2-8.8l-32.8-29.4h27.5c3.8 0 7.3-2.2 9-5.6s1.3-7.5-1.1-10.5l-8.2-10.6 76.5 14.9 89 529.2h-53.4z" /></svg>