<?xml version="1.0" standalone="no"?><!DOCTYPE svg PUBLIC "-//W3C//DTD SVG 1.1//EN" "http://www.w3.org/Graphics/SVG/1.1/DTD/svg11.dtd"><svg class="icon" width="40px" height="40.00px" viewBox="0 0 1024 1024" version="1.1" xmlns="http://www.w3.org/2000/svg"><path d="M512.048 759.839c-15.509 1.939-31.798 2.904-48.867 2.896-19.764 0.01-40.574-1.288-62.431-3.892a3.223 3.223 0 0 1-0.557-0.615 4.302 4.302 0 0 1-0.507-0.892c-0.341-0.735-0.63-1.67-0.87-2.797-4.608-19.644-5.91-108.602-3.905-266.876-6.448-54.415-18.515-111.873-40.15-167.163-37.661 163.217-59.372 250.77-85.135 334.198L199.889 638.471C234.142 406.469 257.421 173.798 289.592 123.933c43.493-23.555 105.21-48.08 113.9-51.523l0.01-0.41 0.357 0.264c0.425-0.168 0.652-0.258 0.664-0.264 35.842 26.54 71.684 39.873 107.526 39.999 35.842-0.126 71.684-13.459 107.526-40 0.012 0.007 0.238 0.097 0.663 0.265l0.358-0.264 0.01 0.41c8.69 3.443 70.407 27.968 113.9 51.523 32.171 49.865 55.45 282.536 89.703 514.538l-69.737 16.227C728.708 571.268 706.998 483.718 669.338 320.5c-21.636 55.29-33.703 112.748-40.152 167.163 2.005 158.274 0.704 247.232-3.904 266.876-0.24 1.127-0.529 2.062-0.87 2.797-0.165 0.373-0.334 0.67-0.507 0.892-0.175 0.246-0.36 0.45-0.557 0.615-21.857 2.604-42.667 3.901-62.43 3.892-17.07 0.008-33.36-0.957-48.87-2.896z" fill="#ffffff" /><path d="M404.522 72c18.64 64.224 77.173 225.548 107.478 230 20.203 2.967 56.401-73.7 108.596-230-68.98 52.434-141.004 52.434-216.074 0z" fill="#deeee5" /><path d="M745 623l9.472 31.698 69.737-16.227-6.21-32.471z" fill="#6eba8f" /><path d="M747.074 629.32a7 7 0 1 1-3.148-13.641l71.5-16.5a7 7 0 0 1 3.148 13.641l-71.5 16.5z" fill="#474747" /><path d="M280 623l-9.473 31.698-69.737-16.227 6.21-32.471z" fill="#6eba8f" /><path d="M277.426 629.32a7 7 0 0 0 3.148-13.641l-71.5-16.5a7 7 0 0 0-3.148 13.641l71.5 16.5z" fill="#474747" /><path d="M405.498 752.346c20.157 2.269 39.384 3.398 57.686 3.39 16.784 0.007 32.783-0.941 47.997-2.843a7 7 0 0 1 1.736 0c15.214 1.902 31.213 2.85 48.004 2.842 18.295 0.009 37.522-1.12 57.68-3.39 4.298-20.007 5.557-109.02 3.586-264.593a7 7 0 0 1 0.048-0.912c7.186-60.636 20.304-117.066 40.584-168.891 2.508-6.41 11.792-5.73 13.34 0.977 38.966 168.88 59.512 250.377 83.086 327.474l57.1-13.286c-7.092-48.205-9.894-68.544-25.523-183.416-10.781-79.236-16.96-122.7-23.592-164.28-13.535-84.863-25.5-135.77-37.688-156.208-18.734-10.054-42.02-20.985-67.819-32.157a1577.756 1577.756 0 0 0-41.142-17.121c-35.942 25.854-72.145 38.94-108.557 39.067-36.363-0.128-72.566-13.213-108.507-39.067a1577.756 1577.756 0 0 0-41.143 17.121c-25.798 11.172-49.084 22.103-67.818 32.157C282.368 149.647 270.403 200.555 256.868 285.418c-6.632 41.58-12.811 85.044-23.592 164.28C217.648 564.57 214.845 584.909 207.753 633.114l57.1 13.286c23.573-77.097 44.12-158.595 83.086-327.474 1.548-6.707 10.831-7.387 13.34-0.977 20.28 51.825 33.398 108.255 40.584 168.89a7 7 0 0 1 0.048 0.913c-1.971 155.573-0.712 244.586 3.587 264.594z m2.182-674.327l-3.143-5.993h-0.033l-4.147 5.6c0.672 0.497 1.344 0.99 2.016 1.478a6.998 6.998 0 0 0 3.88-0.262c0.513-0.22 0.99-0.498 1.427-0.823z m216.06-0.394l-4.146-5.6-0.033 0.001-3.143 5.993c0.436 0.325 0.914 0.603 1.427 0.823 1.26 0.459 2.605 0.54 3.88 0.262 0.672-0.488 1.344-0.981 2.016-1.479z m-5.422 676.386z m-155.134 15.724c-20.05 0.01-41.137-1.305-63.263-3.942a7 7 0 0 1-3.652-1.572 10.132 10.132 0 0 1-1.698-1.82 11.152 11.152 0 0 1-1.26-2.174c-0.562-1.224-0.989-2.598-1.326-4.157-4.793-20.614-6.087-109.123-4.079-268.037-6.056-50.872-16.354-98.648-31.619-143.066-36.662 158.183-56.555 235.961-79.973 311.796a7 7 0 0 1-8.274 4.753L198.302 645.288a7 7 0 0 1-5.338-7.84l0.374-2.538c7.508-50.97 10.037-69.292 26.066-187.1 10.795-79.34 16.984-122.879 23.638-164.598C257.291 193.874 269.678 141.89 283.71 120.138a7 7 0 0 1 2.548-2.36c19.43-10.523 43.658-21.925 70.553-33.572 9.818-4.252 19.451-8.3 28.679-12.083 5.27-2.16 9.491-3.862 13.447-5.436a7.099 7.099 0 0 1 5.166-1.675 6.998 6.998 0 0 1 4.585 1.362c34.705 25.699 69.131 38.505 103.336 38.625 34.255-0.12 68.68-12.926 103.385-38.625a6.998 6.998 0 0 1 4.586-1.362 7.099 7.099 0 0 1 5.166 1.675 1376.84 1376.84 0 0 1 13.447 5.436c9.228 3.783 18.86 7.831 28.679 12.083 26.895 11.647 51.123 23.05 70.552 33.572a7 7 0 0 1 2.549 2.36c14.033 21.752 26.419 73.736 40.667 163.075 6.654 41.72 12.844 85.258 23.639 164.598 16.028 117.808 18.558 136.13 26.066 187.1l0.374 2.538a7 7 0 0 1-5.339 7.84l-69.737 16.227a7 7 0 0 1-8.275-4.753c-23.417-75.835-43.31-153.613-79.972-311.796-15.265 44.418-25.563 92.194-31.62 143.067 2.01 158.913 0.715 247.422-4.078 268.036-0.337 1.56-0.764 2.933-1.326 4.157a11.152 11.152 0 0 1-1.26 2.173 10.132 10.132 0 0 1-1.699 1.821 7 7 0 0 1-3.652 1.572c-22.126 2.637-43.213 3.952-63.255 3.942-17.037 0.008-33.328-0.939-48.872-2.842-15.544 1.903-31.835 2.85-48.865 2.842zM622.542 65.66c0.096 0.044 0.19 0.091 0.285 0.14l-0.472-0.221 0.187 0.08z" fill="#474747" /><path d="M680.317 213.608c20.943 77.151 24.231 106.073-0.222 215.915-31.542 141.686 39.388 312.04 94.35 482.175-23.907 5.907-44.149 5.177-87.445 25-56.082 18.429-124.573 14.975-174.917 15a28.741 28.741 0 0 1-0.285 0H511.513c-115.513-0.057-181.575-20.04-262.363-40 54.963-170.136 125.892-340.489 94.35-482.175-24.453-109.842-11.165-138.764-0.221-215.915l169.28 131.345L680.318 213.608z" fill="#ffffff" /><path d="M745.001 845.179c-20.158-59.883-26.733-79.769-35.916-109.453-12.364-39.971-21.77-74.575-28.825-107.086-16.832-77.58-19.917-142.604-6.998-200.638 12.504-56.165 17.333-89.52 16.968-118.608-0.336-26.814-4.594-49.473-16.669-93.952a7 7 0 0 1 13.511-3.668c12.36 45.53 16.803 69.17 17.157 97.445 0.381 30.41-4.582 64.691-17.301 121.826-12.417 55.777-9.425 118.863 7.014 194.626 6.959 32.072 16.264 66.303 28.518 105.918 9.135 29.532 15.692 49.36 35.81 109.124 9.963 29.598 15.602 46.526 21.59 64.985 0.42 1.291 0.835 2.574 1.246 3.848a7 7 0 0 1-4.982 8.948c-11.993 2.963-33.872 6.762-65.792 11.438l0.924 4.523a7 7 0 0 1-5.73 8.309c-62.943 10.288-132.474 15.904-193.423 15.934h-0.593c-27.737-0.014-57.582-1.192-87.936-3.488-1.023-0.077-22.263-1.81-64.145-5.234a7 7 0 0 1-6.43-6.976v-3.862c-33.52-4.55-68.978-11.614-105.528-20.644a7 7 0 0 1-4.982-8.948l1.246-3.848c5.989-18.46 11.628-35.387 21.591-64.985 20.118-59.764 26.675-79.592 35.81-109.124 12.254-39.615 21.559-73.846 28.518-105.918 16.438-75.763 19.43-138.85 7.014-194.626-14.107-63.367-16.67-102.194-11.493-145.29 1.006-8.374 2.25-16.797 4.18-28.728 0.525-3.245 2.431-14.869 2.482-15.178a1772.187 1772.187 0 0 0 2.588-16.24c0.684-4.446 1.32-8.727 1.923-12.984a7 7 0 0 1 13.862 1.966c-0.612 4.314-1.256 8.65-1.949 13.149-0.777 5.05-1.576 10.05-2.607 16.365-0.053 0.322-1.957 11.93-2.48 15.158-1.902 11.759-3.12 20.015-4.099 28.162-4.978 41.441-2.52 78.69 11.258 140.577 12.92 58.034 9.835 123.059-6.998 200.638-7.054 32.511-16.46 67.115-28.825 107.086-9.182 29.684-15.758 49.57-35.916 109.453-9.344 27.76-14.875 44.347-20.459 61.506 35.697 8.593 70.235 15.227 102.75 19.37a7 7 0 0 1 6.115 6.945v3.548a78425.18 78425.18 0 0 0 57.63 4.702c30.011 2.27 59.507 3.435 86.903 3.448h0.546c57.904-0.029 123.725-5.167 183.998-14.6l-0.945-4.629a7 7 0 0 1 5.862-8.33c29.406-4.228 50.918-7.765 64.425-10.582-5.57-17.114-11.096-33.687-20.418-61.378z" fill="#474747" /><path d="M397.859 74.144a7 7 0 0 1 13.327-4.289c24.59 76.407 45.836 133.657 63.69 171.668 8.81 18.753 16.751 32.727 23.732 41.846 6.135 8.014 11.043 11.63 13.951 11.63 2.908 0 7.816-3.616 13.951-11.63 6.981-9.119 14.923-23.093 23.732-41.846 17.855-38.01 39.101-95.26 63.69-171.668a7 7 0 0 1 13.327 4.289c-24.756 76.926-46.188 134.676-64.346 173.332-19.294 41.076-34.948 61.524-50.354 61.524-15.406 0-31.06-20.448-50.354-61.524-18.157-38.656-39.59-96.406-64.346-173.332z" fill="#474747" /><path d="M420.569 132.486a7 7 0 1 1 4.779-13.16l156 56.652a7 7 0 0 1-4.779 13.16l-156-56.652zM457.068 225.258a7 7 0 1 1 4.727-13.177l93.822 33.66a7 7 0 1 1-4.727 13.177l-93.823-33.66z" fill="#474747" /><path d="M566.903 226.949a7 7 0 0 0-4.74-13.173L471.388 246.434a7 7 0 0 0 4.74 13.173l90.775-32.658zM599.902 135.104a7 7 0 1 0-4.744-13.172l-151.713 54.652a7 7 0 0 0 4.745 13.171l151.712-54.651z" fill="#474747" /><path d="M350 462l215 40v32l-213-20z" fill="#6eba8f" /><path d="M358.758 507.603l199.242 18.708V507.818l-200.669-37.333 1.428 37.12z m-7.478-52.485l215 40a7 7 0 0 1 5.72 6.882v32c0 4.124-3.548 7.354-7.655 6.969l-213-20a7 7 0 0 1-6.34-6.7l-2-52c-0.173-4.486 3.862-7.972 8.275-7.151z" fill="#474747" /><path d="M674 462l-109 40v32l106-20z" fill="#6eba8f" /><path d="M664.326 508.135l-92.327 17.42V506.888l94.397-34.641-2.07 35.89z m7.261-52.707l-109 40a7 7 0 0 0-4.588 6.572v32c0 4.386 3.988 7.691 8.298 6.878l106-20a7 7 0 0 0 5.69-6.475l3-52c0.29-5.03-4.67-8.71-9.4-6.975z" fill="#474747" /><path d="M594.353 512l43.893 199.632-27.713 16-59.713-197.034z" fill="#6eba8f" /><path d="M559.338 534.571l55.335 182.588 15.635-9.027-40.977-186.375-29.993 12.814z m41.852-24.074l43.892 199.632a7 7 0 0 1-3.337 7.566l-27.712 16c-3.905 2.254-8.892 0.283-10.2-4.032L544.121 532.628a7 7 0 0 1 3.949-8.467l43.533-18.599c4.036-1.724 8.644 0.648 9.587 4.935z" fill="#474747" /><path d="M538.416 512l-43.892 130.343 27.713 16L581.948 530.598z" fill="#6eba8f" /><path d="M572.543 534.191l-53.416 114.274-16.14-9.319 39.645-117.733 29.91 12.778z m-40.76-24.425L487.889 640.108a7 7 0 0 0 3.134 8.297l27.713 16a7 7 0 0 0 9.841-3.098l59.713-127.746a7 7 0 0 0-3.592-9.402l-43.533-18.598a7 7 0 0 0-9.384 4.204z" fill="#474747" /><path d="M532 488m1 0l64 0q1 0 1 1l0 44q0 1-1 1l-64 0q-1 0-1-1l0-44q0-1 1-1Z" fill="#6eba8f" /><path d="M539 495v32h52v-32h-52z m-6-14h64a8 8 0 0 1 8 8v44a8 8 0 0 1-8 8h-64a8 8 0 0 1-8-8v-44a8 8 0 0 1 8-8zM382.052 706.147a7 7 0 0 1 13.895 1.705l-28 228.181a7 7 0 0 1-13.895-1.705l28-228.181zM676.827 783.454a7 7 0 1 0-13.655 3.091l34 150.182a7 7 0 0 0 13.655-3.092l-34-150.181z" fill="#474747" /></svg>