<?xml version="1.0" standalone="no"?><!DOCTYPE svg PUBLIC "-//W3C//DTD SVG 1.1//EN" "http://www.w3.org/Graphics/SVG/1.1/DTD/svg11.dtd"><svg class="icon" width="40px" height="40.00px" viewBox="0 0 1024 1024" version="1.1" xmlns="http://www.w3.org/2000/svg"><path d="M308.9 133.7l42.5-28.7L509 327.6 671.9 102l52.2 31.7L511.5 454z" fill="#91d0ed" /><path d="M742.6 713.6c0.2 0 0.4 0 0.6-0.1L922 583.8V379.7l-104.6-174c-7.5-12.5-17.9-22.9-30.4-30.3l-55.9-33.2-212.1 317c-3.6 5.3-11.4 5.3-15 0L293.7 142.8l-54.6 33c-12 7.2-22 17.2-29.3 29.1L102 379.4v190.7l182.2 143.3 68.7-72.3-166-172.7c-4.6-4.8-4.4-12.4 0.3-17s12.4-4.4 17 0.3l21.7 22.6 45-52.1c7.3-8.4 21.1-3.3 21.1 7.8v113l127.1 132.3c4.4 4.6 4.5 11.9 0.1 16.6l-78.4 82.6c-4.3 4.5-11.3 5-16.1 1.2L293 750.8V862h439V751.3l-34 24.6c-5 3.6-11.8 2.9-15.9-1.6l-77.9-85.7c-4.3-4.8-4.1-12.1 0.4-16.6L732 545.6V430.9c0-10.8 13.1-16.1 20.6-8.3l50.5 52.5 23.3-23.1c4.7-4.7 12.3-4.6 17 0.1 4.7 4.7 4.6 12.3-0.1 17L674.1 636.9l68.5 76.7z m-14.4 10.8l-66.8-74.9-31.6 31.4 62.9 69.2 35.5-25.7z m-429.8 0.1l32.4 25.5 63-66.4-28.5-29.6-66.9 70.5zM268 518.1v-55.8l-25.4 29.4 25.4 26.4z m488 3.8l30.1-29.9-30.1-31.4v61.3zM309.1 133.4L511.5 438l204.1-305-42.6-25.3-152.3 228c-4.8 7.2-15.4 7.1-20-0.1L352.5 107.2l-43.4 26.2zM355.4 80c2.3-0.3 4.8 0.1 7.2 1.4 49.5 26.3 98.8 39.3 148.1 39.3 49.4 0 100.3-13.1 152.9-39.5 2.3-1.1 4.6-1.5 6.7-1.3 2 0 4 0.6 5.9 1.7l123 73.1c15.9 9.5 29.2 22.7 38.7 38.6l106.3 176.9c1.1 1.9 1.7 4 1.7 6.2v213.5c0 3.8-1.8 7.5-5 9.7L756 733.9V874c0 6.6-5.4 12-12 12h-10v48c0 6.6-5.4 12-12 12H302c-6.6 0-12-5.4-12-12v-48h-9c-6.6 0-12-5.4-12-12V731.9L82.6 585.3c-2.9-2.3-4.6-5.8-4.6-9.4V376c0-2.2 0.6-4.4 1.8-6.3l109.6-177.5c9.3-15.1 22.1-27.8 37.3-37l121.6-73.5c2.2-1.3 4.7-1.9 7.1-1.7zM314 886v36h396v-36H314z m196.9-578.8L636 119.8c-42.5 16.6-84.3 24.9-125.3 24.9-40.4 0-80.8-8.1-120.9-24.2l121.1 186.7z"  /></svg>