<?xml version="1.0" standalone="no"?><!DOCTYPE svg PUBLIC "-//W3C//DTD SVG 1.1//EN" "http://www.w3.org/Graphics/SVG/1.1/DTD/svg11.dtd"><svg class="icon" width="40px" height="40.00px" viewBox="0 0 1024 1024" version="1.1" xmlns="http://www.w3.org/2000/svg"><path d="M340 869h127v65H340v-65z m207 0h127v65H547v-65z" fill="#91d0ed" /><path d="M674.1 250.3c-19.5-8-34.1-21.6-43.5-40.7-9.5-19.3-14.7-40.7-15.5-64.1h-13.6V162c0 5-4 9-9 9s-9-4-9-9v-16.5H557V213c0 0.6-0.1 1.2-0.2 1.8-6.5 30.8-25.9 45.2-55.3 40.2-4.3-0.7-7.5-4.5-7.5-8.9V145.5h-57.5V162c0 5-4 9-9 9s-9-4-9-9v-16.5h-16.6c-0.8 23.5-5.9 44.9-15.5 64.1-9.2 18.5-23.2 31.9-41.8 40-1.2 150.8-0.6 267.2 1.6 349.4 2.8 104.2 9.3 190.2 19.6 258h81.9L490 349.5h-47c-3.9 0-7-3.1-7-7s3.1-7 7-7h126c3.9 0 7 3.1 7 7s-3.1 7-7 7h-46.9c1 1.6 1.7 3.4 1.9 5.4L569.3 857h84.2c16.3-103.6 25.4-206.5 27.1-308.7 1.3-74.9-0.9-174.2-6.5-298z m-1-20.3c-1.3-27-2.7-55.2-4.4-84.5h-35.6c0.8 20.7 5.3 39.4 13.6 56.2 6.1 12.4 14.9 21.8 26.4 28.3z m-328.3-0.5c11.1-6.4 19.6-15.7 25.5-27.8 8.3-16.8 12.8-35.5 13.6-56.2h-38.3c-0.3 29-0.6 57-0.8 84z m194.2-84h-27V238c14.6 0.2 23-7.9 27-26v-66.5zM512 100v27.5h33.6c0.8-0.2 1.6-0.3 2.4-0.3s1.6 0.1 2.4 0.3h33.1V100H512z m-18 0h-57.5v27.5H494V100z m107.5 0v27.5h66.3c-0.5-9.1-1-18.2-1.6-27.5h-64.7z m-183 0h-72.4c-0.1 9.3-0.2 18.4-0.3 27.5h72.7V100z m126.7 757.1L507 433.8 471.7 858c4.3 1.8 7.4 6.1 7.4 11.1v65c0 6.6-5.4 12-12 12H340c-6.6 0-12-5.4-12-12v-65c0-6.6 5.4-12 12-12h1.5C331.4 788.7 325 703 322.2 599.7c-2.9-108.6-2.9-276.5 0-503.8 0-2.3 0.7-4.5 1.9-6.3-0.1-0.6-0.1-1.1-0.1-1.6 0-6.6 5.4-12 12-12h341.5c6.4 0 11.6 5 12 11.3 11.9 201.8 17 355.6 15.2 461.4C702.9 651 694 754 677.8 857.6c4.8 1.6 8.3 6.1 8.3 11.4v65c0 6.6-5.4 12-12 12H547c-6.6 0-12-5.4-12-12v-65c0-6 4.4-11 10.2-11.9zM417 325.5c-3.9 0-7-3.1-7-7s3.1-7 7-7h187c3.9 0 7 3.1 7 7s-3.1 7-7 7H417zM352 881v41h103v-41H352z m207 0v41h103v-41H559z"  /></svg>