<?xml version="1.0" standalone="no"?><!DOCTYPE svg PUBLIC "-//W3C//DTD SVG 1.1//EN" "http://www.w3.org/Graphics/SVG/1.1/DTD/svg11.dtd"><svg class="icon" width="40px" height="40.00px" viewBox="0 0 1024 1024" version="1.1" xmlns="http://www.w3.org/2000/svg"><path d="M 621.8 451.9 c -2.6 2.5 -64.9 72.4 -111.8 186.4 C 463.2 752.1 461.6 871 461.6 876 l 32 0.3 c 0 -1.2 1.6 -117.9 46 -225.8 c 23 -56 50.1 -108 68.8 -133.3 c 20.3 -27.5 35.3 -41.9 35.4 -42.1 l -22 -23.2 Z M 566.2 211.4 c 5.8 -6.6 5.2 -16.8 -1.5 -22.6 c -6.6 -5.8 -16.8 -5.2 -22.6 1.5 c -0.3 0.3 -30.1 32.5 -122.9 78 c -7.9 3.9 -11.2 13.5 -7.3 21.4 c 2.8 5.7 8.5 9 14.4 9 c 2.4 0 4.8 -0.5 7 -1.6 c 41.6 -20.4 76.4 -40.7 103.3 -60.4 c 20.4 -15.2 28.7 -24.3 29.6 -25.3 Z" fill="#22b573" /><path d="M 598.7 896 H 405.3 c -5.8 0 -11.1 -3.1 -14 -8.2 c -3.2 -5.8 -78.6 -142 -78.6 -247.8 c 0 -57.5 11.9 -97.1 23.4 -125.8 c 9.7 -24.2 19.8 -49.1 23.3 -94 c 7.4 -94.7 -49.3 -206.5 -49.9 -207.5 c -2.3 -4 -2.7 -8.9 -1.1 -13.2 s 4.9 -7.8 9.2 -9.5 l 103.8 -40.9 c 4.2 -1.7 9 -1.4 13 0.6 c 4.1 2 7.1 5.7 8.3 10.1 c 0.5 1.8 13.5 45.3 59.3 45.3 c 19.4 0 35.2 -7.6 47 -22.4 c 9 -11.4 12.3 -22.7 12.3 -22.8 c 1.2 -4.4 4.2 -8.1 8.3 -10.1 c 4.1 -2 8.8 -2.3 13 -0.6 L 686.4 190 c 4.3 1.7 7.7 5.2 9.2 9.5 c 1.5 4.4 1.1 9.2 -1.1 13.2 c -0.6 1 -57.3 113.1 -49.9 207.5 c 3.5 44.9 13.5 69.9 23.3 94 c 11.5 28.7 23.4 68.3 23.4 125.8 c 0 105.7 -75.4 242 -78.6 247.8 c -2.8 5.1 -8.2 8.2 -14 8.2 Z m -183.8 -32 h 174.3 c 16 -30.6 70.1 -140.5 70.1 -224 c 0 -51.3 -9.8 -85.7 -21.1 -113.8 c -10.1 -25.2 -21.6 -53.7 -25.5 -103.5 c -6.4 -81.7 28.8 -175.1 45.5 -209.5 l -72.7 -28.6 c -2.8 5.4 -6.5 11.6 -11.4 17.8 c -17.9 22.7 -42.8 34.6 -72.1 34.6 s -54.2 -12 -72.1 -34.6 c -4.9 -6.2 -8.7 -12.4 -11.4 -17.8 l -72.7 28.6 c 16.7 34.4 51.9 127.8 45.5 209.5 c -3.9 49.8 -15.4 78.3 -25.5 103.5 c -11.3 28.2 -21.1 62.5 -21.1 113.8 c 0 83.5 54.2 193.4 70.2 224 Z"  /></svg>