<?xml version="1.0" standalone="no"?><!DOCTYPE svg PUBLIC "-//W3C//DTD SVG 1.1//EN" "http://www.w3.org/Graphics/SVG/1.1/DTD/svg11.dtd"><svg class="icon" width="40px" height="40.00px" viewBox="0 0 1024 1024" version="1.1" xmlns="http://www.w3.org/2000/svg"><path d="M332 92h-39.6c57.7 98.5 130.8 145.5 219.1 140.9S671.4 184.6 726.2 102l-40.8-10c-56.7 60-114.7 90-173.9 90s-119-30-179.5-90z" fill="#91d0ed" /><path d="M278 108.7c-37.2 10.8-67.8 32.8-92.9 64.2-14.8 18.5-27.2 39.7-37.8 63.3-8.1 18.1-14.4 35.8-20.8 56.7-12 39.3-20.3 80-24.9 122l103.8 66.8 26.5-62.5c0.9-5.8 5.9-10.2 11.9-10.2h0.1c1.7 0 3.3 0.3 5 1 5.6 2.4 8.4 8.4 6.9 14.1V923h510.9V421c0-6.6 5.4-12 12-12 4.7-0.1 9.3 2.6 11.3 7.2l28.2 64.5L923.4 400c-7-35.7-17.8-71-32.4-105.9-0.7-1.6-5.9-14.1-7.6-18.2-3.3-7.8-6.2-14.5-9.3-21.3-7.9-17.3-16-32.9-25.1-47.7-18.7-30.6-40-55.3-65-73.3-14.8-10.7-30.8-18.9-47.9-24.4C679.6 198.1 603.3 243 508.3 243 413.1 243 336 197.9 278 108.7z m25.2-5.5c53 77.5 121.1 115.8 205.1 115.8s151.3-38.2 202.9-115.7c-7.5-1.2-15.2-1.9-23.1-2.2-2 3-4.2 6.3-6.8 9.8-8.8 11.8-19.5 23.5-32.2 34.4-36.5 31.3-82.3 50.1-137.6 50.1-55.2 0-102.1-18.8-140.7-49.9-13.5-10.9-24.9-22.5-34.5-34.2-3-3.7-5.6-7.1-7.8-10.3-8.8 0.3-17.2 1-25.3 2.2z m487.4 374.5V935c0 6.6-5.4 12-12 12h-535c-6.6 0-12-5.4-12-12V481l-9.8 23.2c-2.9 6.9-11.3 9.4-17.5 5.4l-122-78.5c-3.8-2.4-5.9-6.8-5.4-11.3 4.6-46.1 13.5-90.7 26.6-133.9 6.6-21.8 13.3-40.4 21.9-59.5 11.4-25.4 24.8-48.3 40.9-68.5C207.5 106.3 263 77 334.8 77c4.2 0 8.1 2.2 10.3 5.8l0.1 0.1c0.1 0.2 0.2 0.4 0.4 0.6 0.5 0.8 1.1 1.6 1.8 2.7 2.1 3 4.6 6.3 7.6 10 8.5 10.5 18.9 21 31 30.7 34.5 27.9 76.3 44.6 125.6 44.6s89.6-16.6 122-44.4c11.3-9.7 20.9-20.2 28.6-30.5 2.7-3.6 4.9-6.9 6.8-9.9 0.6-1 1.2-1.9 1.6-2.6 0.1-0.2 0.3-0.5 0.4-0.6 0-0.1 0.1-0.1 0.1-0.1 1.8-4 5.9-6.4 10.3-6.4 44.3 0 83 13 116.5 37.2 27.9 20.1 51.2 47.2 71.5 80.3 9.6 15.6 18.1 32.1 26.4 50.2 3.2 7 6.2 14 9.6 21.9 1.8 4.2 7 16.7 7.6 18.2 16.3 38.8 28.1 78.2 35.3 118.1 0.8 4.4-0.9 8.9-4.5 11.7l-123.3 94.5c-6.2 4.7-15.2 2.4-18.3-4.7l-11.6-26.7zM455.2 354.6h3.5v8.9h10.9v-8.9h3.5V376h-3.5v-9.5h-10.9v9.5h-3.5v-21.4z m29.6-0.4c2.5 0 4.5 0.5 5.9 1.6 1.5 1.1 2.4 2.9 2.6 5.2h-3.5c-0.3-1.3-0.9-2.3-1.6-2.9-0.8-0.6-2-0.9-3.5-0.9-1.4 0-2.4 0.2-3.1 0.6-0.9 0.4-1.3 1.2-1.3 2.2 0 0.9 0.5 1.6 1.5 2.2 0.5 0.2 1.7 0.7 3.7 1.3 2.9 0.9 4.8 1.6 5.6 2.1 1.9 1.1 2.8 2.6 2.8 4.6 0 1.9-0.8 3.5-2.2 4.6-1.5 1.1-3.6 1.7-6.4 1.7-2.6 0-4.7-0.5-6.2-1.5-1.8-1.3-2.8-3.2-2.9-6h3.5c0.2 1.6 0.8 2.8 1.7 3.5 0.8 0.6 2.1 0.9 3.9 0.9 1.6 0 2.8-0.3 3.7-0.8 0.9-0.5 1.4-1.2 1.4-2.1 0-1.1-0.7-2-2-2.7-0.4-0.2-1.8-0.7-4.2-1.4-2.6-0.8-4.3-1.4-4.9-1.8-1.6-1-2.5-2.4-2.5-4.3s0.8-3.4 2.4-4.5c1.4-1.1 3.3-1.6 5.6-1.6z m10.4 0.4h17.5v3h-7V376h-3.5v-18.4h-7v-3z m18.1 0h4.2l6 9.6 6-9.6h4.2l-8.5 12.9v8.5h-3.5v-8.5l-8.4-12.9z m22.7 0h3.5V373H551v3h-15v-21.4z m17.7 0h15.5v3h-11.9v5.9h11.2v3h-11.2v6.5h12.4v3h-16v-21.4z"  /></svg>