<?xml version="1.0" standalone="no"?><!DOCTYPE svg PUBLIC "-//W3C//DTD SVG 1.1//EN" "http://www.w3.org/Graphics/SVG/1.1/DTD/svg11.dtd"><svg class="icon" width="40px" height="40.00px" viewBox="0 0 1024 1024" version="1.1" xmlns="http://www.w3.org/2000/svg"><path d="M639.606 102.163l0.198-0.149c55.925 21.683 87.26 35.184 154.003 70.5 43.559 23.05 76.163 259.763 97.813 710.142 0.742 15.446-11.177 28.57-26.624 29.312-0.447 0.021-0.896 0.032-1.344 0.032h-88.379c-15.464 0-28-12.536-28-28V394.5H276.73V884c0 15.464-12.536 28-28 28h-88.38c-15.463 0-28-12.536-28-28a28 28 0 0 1 0.033-1.344c21.65-450.379 54.254-687.092 97.813-710.141 66.744-35.317 98.078-48.818 154.003-70.5 0.066 0.049 0.132-0.05 0.198 0l255.21 0.148z" fill="#ffffff" /><path d="M385.507 109.015C325.29 132.389 294.93 146.18 233.469 178.702c-8.63 4.566-18.162 22.613-27.175 53.739-9.411 32.504-18.19 78.646-26.301 138.348-16.273 119.786-29.824 283.88-40.64 512.217A21 21 0 0 0 139.33 884c0 11.598 9.402 21 21 21h88.399c11.598 0 21-9.402 21-21V394.5a7 7 0 0 1 7-7h470.544a7 7 0 0 1 7 7V884c0 11.598 9.402 21 21 21h88.399a21 21 0 0 0 0.993-0.024c11.585-0.548 20.532-10.385 19.983-21.97-10.816-228.338-24.366-392.431-40.64-512.217-8.11-59.702-16.889-105.844-26.3-138.348-9.013-31.126-18.545-49.173-27.175-53.74-61.332-32.453-91.693-46.254-151.657-69.538l-253.37-0.148z m0.67-0.26c-0.324 0.092-0.435 0.108-1.172 0.214a6.919 6.919 0 0 1-4.566-1.18 7 7 0 0 0 3.952 1.225h0.297c0.072-0.004 0.144-0.01 0.216-0.017 0.779-0.112 0.879-0.126 1.24-0.23l0.034-0.012z m-5.994-1.15zM638.37 95.162a6.997 6.997 0 0 1 3.963 0.326c61.528 23.855 92.377 37.837 154.747 70.84 24.863 13.156 44.087 79.545 60.8 202.577 16.339 120.268 29.918 284.727 40.752 513.439 0.914 19.308-13.997 35.702-33.305 36.617a35 35 0 0 1-1.656 0.039h-88.399c-19.33 0-35-15.67-35-35V401.5H283.73V884c0 19.33-15.67 35-35 35H160.33c-19.33 0-35-15.67-35-35a35 35 0 0 1 0.04-1.656c10.833-228.712 24.412-393.171 40.75-513.44 16.714-123.03 35.938-189.42 60.801-202.577 62.37-33.002 93.219-46.984 154.747-70.84a6.995 6.995 0 0 1 2.02-0.456 7.1 7.1 0 0 1 1.123-0.016l253.56 0.147zM388.419 96.43z" fill="#474747" /><path d="M770 912h100v40h-100zM154 912h100v40h-100z" fill="#6eba8f" /><path d="M777 945h86v-26h-86v26z m-7-40h100a7 7 0 0 1 7 7v40a7 7 0 0 1-7 7h-100a7 7 0 0 1-7-7v-40a7 7 0 0 1 7-7zM161 945h86v-26h-86v26z m-7-40h100a7 7 0 0 1 7 7v40a7 7 0 0 1-7 7h-100a7 7 0 0 1-7-7v-40a7 7 0 0 1 7-7z" fill="#474747" /><path d="M383 82c36.168-6.667 79-10 128.5-10s92.334 3.333 128.5 10l-129 144-128-144z" fill="#deeee5" /><path d="M384.27 88.884a7 7 0 0 1-2.538-13.768C418.352 68.366 461.602 65 511.5 65c49.9 0 93.149 3.366 129.769 10.116a7 7 0 1 1-2.538 13.768C603.019 82.301 560.602 79 511.5 79c-49.1 0-91.518 3.301-127.231 9.884z" fill="#474747" /><path d="M256 375v408.103a50 50 0 0 0 27.286 44.542c62.473 31.86 138.712 47.79 228.715 47.79 89.994 0 166.226-15.927 228.697-47.78a50 50 0 0 0 27.287-44.572L767.759 375" fill="#ffffff" /><path d="M407.675 867.307c32.434 5.419 67.21 8.128 104.326 8.128 89.994 0 166.226-15.927 228.697-47.78a50 50 0 0 0 27.287-44.572l-0.098-177.574c-75.294 111.73-195.365 198.997-360.212 261.798z" fill="#6eba8f" /><path d="M761.957 595.836a7 7 0 0 1 12.088 7.062c-34.319 58.74-82.125 110.671-143.361 155.779-61.069 44.985-135.493 83.184-223.26 114.628a7 7 0 0 1-4.721-13.18c86.546-31.006 159.767-68.589 219.678-112.72 59.743-44.008 106.249-94.526 139.576-151.569z" fill="#474747" /><path d="M249 375a7 7 0 1 1 14 0v408.103a43 43 0 0 0 23.466 38.306c61.418 31.322 136.576 47.026 225.535 47.026 88.95 0 164.102-15.701 225.517-47.017a43 43 0 0 0 23.467-38.33l-0.226-408.084a7 7 0 1 1 14-0.008l0.226 408.083a57 57 0 0 1-31.108 50.812c-63.525 32.391-140.838 48.544-231.876 48.544-91.048 0-168.366-16.156-231.896-48.554a57 57 0 0 1-31.104-50.778V375z" fill="#474747" /><path d="M579.5 441a7 7 0 0 1-14 0V206a7 7 0 1 1 14 0v235zM459.5 477a7 7 0 0 1-14 0V206a7 7 0 1 1 14 0v271z" fill="#474747" /><path d="M290.611 142.09l-50.046 25.013C246.92 142.277 311.584 69.756 383.001 82l128.5 144-220.89-83.91zM733.39 142.09l50.046 25.013C777.083 142.277 712.418 69.756 641.001 82l-128.5 144 220.89-83.91z" fill="#6eba8f" /><path d="M287.482 135.828a7 7 0 0 1 5.615-0.282l194.102 73.734L379.442 88.525c-29.294-4.204-59.86 6.417-87.818 27.695-13.99 10.648-26.443 23.62-34.636 34.849l30.494-15.24z m-43.787 37.536c-5.366 2.682-11.398-2.186-9.911-7.997 4.033-15.759 24.5-41.365 49.36-60.287C314.69 81.071 349.85 69.214 384.185 75.1a7 7 0 0 1 4.04 2.24l128.5 144c4.879 5.467-0.859 13.806-7.709 11.204l-218.02-82.82-47.3 23.64z" fill="#474747" /><path d="M736.552 135.828a7 7 0 0 0-5.615-0.282L536.835 209.28 644.592 88.525c29.293-4.204 59.86 6.417 87.818 27.695 13.99 10.648 26.443 23.62 34.635 34.849l-30.493-15.24z m-3.513 13.896l47.3 23.64c5.365 2.682 11.398-2.186 9.91-7.997-4.032-15.759-24.5-41.365-49.36-60.287-31.545-24.009-66.704-35.866-101.04-29.98a7 7 0 0 0-4.04 2.24l-128.5 144c-4.878 5.467 0.86 13.806 7.71 11.204l218.02-82.82z" fill="#474747" /><path d="M439.001 455m1 0l26 0q1 0 1 1l0 42q0 1-1 1l-26 0q-1 0-1-1l0-42q0-1 1-1Z" fill="#6eba8f" /><path d="M559.001 419m1 0l26 0q1 0 1 1l0 42q0 1-1 1l-26 0q-1 0-1-1l0-42q0-1 1-1Z" fill="#6eba8f" /><path d="M446 462v30h14v-30h-14z m-6-14h26a8 8 0 0 1 8 8v42a8 8 0 0 1-8 8h-26a8 8 0 0 1-8-8v-42a8 8 0 0 1 8-8zM566 426v30h14v-30h-14z m-6-14h26a8 8 0 0 1 8 8v42a8 8 0 0 1-8 8h-26a8 8 0 0 1-8-8v-42a8 8 0 0 1 8-8z" fill="#474747" /></svg>