<?xml version="1.0" standalone="no"?><!DOCTYPE svg PUBLIC "-//W3C//DTD SVG 1.1//EN" "http://www.w3.org/Graphics/SVG/1.1/DTD/svg11.dtd"><svg t="1569717711524" class="icon" viewBox="0 0 1024 1024" version="1.1" xmlns="http://www.w3.org/2000/svg" p-id="6921" id="mx_n_1569717711525" width="32" height="32" xmlns:xlink="http://www.w3.org/1999/xlink"><defs><style type="text/css"></style></defs><path d="M768 509.334v-128h190.952l-89.562-134.358H670V138H0v636h89.468c2.832-89.436 76.42-161.332 166.532-161.332 90.112 0 163.7 71.896 166.532 161.332h157.604c2.832-89.436 76.418-161.332 166.532-161.332 90.112 0 163.698 71.896 166.532 161.332H1024V509.334H768z" p-id="6922" data-spm-anchor-id="a313x.7781069.0.i38" class="" fill="#d81e06"></path><path d="M256 779.34m-106.66 0a106.66 106.66 0 1 0 213.32 0 106.66 106.66 0 1 0-213.32 0Z" p-id="6923" data-spm-anchor-id="a313x.7781069.0.i39" class="" fill="#d81e06"></path><path d="M746.66 779.34m-106.66 0a106.66 106.66 0 1 0 213.32 0 106.66 106.66 0 1 0-213.32 0Z" p-id="6924" fill="#d81e06"></path></svg>