<?xml version="1.0" standalone="no"?><!DOCTYPE svg PUBLIC "-//W3C//DTD SVG 1.1//EN" "http://www.w3.org/Graphics/SVG/1.1/DTD/svg11.dtd"><svg t="1569717772459" class="icon" viewBox="0 0 1024 1024" version="1.1" xmlns="http://www.w3.org/2000/svg" p-id="7853" width="32" height="32" xmlns:xlink="http://www.w3.org/1999/xlink"><defs><style type="text/css"></style></defs><path d="M126.049834 331.62591l0.969071 0 764.789377 0c18.907629 0 34.212196 15.280008 34.212196 33.963533l0 0.969071 0 154.065911c0 19.180851-15.304568 34.46086-34.212196 34.46086l-0.744967 0-3.154853 0 0 374.863666c0 18.935258-15.280008 34.215266-33.963533 34.215266l-0.969071 0L163.91421 964.164217c-18.932188 0-33.963533-15.280008-33.963533-34.215266l0-0.717338L129.950677 555.085284l-3.900843 0c-18.907629 0-34.211173-15.280008-34.211173-34.46086l0-0.471744L91.838661 365.589442C91.838661 346.905918 107.142206 331.62591 126.049834 331.62591L126.049834 331.62591zM575.178925 895.739824 575.178925 895.739824 575.178925 555.085284 442.679192 555.085284l0 340.65454L575.178925 895.739824 575.178925 895.739824zM401.684522 895.739824 401.684522 895.739824 401.684522 555.085284 198.126406 555.085284l0 340.65454L401.684522 895.739824 401.684522 895.739824zM615.925954 555.085284 615.925954 555.085284l0 340.65454 203.806779 0L819.732733 555.085284 615.925954 555.085284 615.925954 555.085284zM510.87948 126.353756 510.87948 126.353756c16.497743 0 32.025391 5.092995 45.119617 12.870122 6.310729-18.21178 16.497743-34.46086 29.590945-47.805796 22.335704-22.083971 52.423977-35.674501 85.891206-35.674501 33.988092 0 64.547085 13.59053 86.137823 35.674501 22.335704 22.091134 36.150338 52.650127 36.150338 86.614683 0 33.491789-13.81361 64.051805-36.150338 85.890182-21.590737 21.839401-52.150754 35.926234-86.137823 35.926234l0 0c-108.202351 0-216.899982 0-325.102333 0l0 0c-33.988092 0-64.548108-14.086833-86.387509-35.926234-22.310122-21.839401-35.901675-52.398394-35.901675-85.890182 0-33.963533 13.591553-64.523549 35.901675-86.614683 21.839401-22.083971 52.398394-35.674501 86.387509-35.674501 33.466206 0 64.051805 13.59053 85.890182 35.674501 13.56597 13.842263 24.249287 30.80868 30.087249 49.743938C476.169957 131.695415 492.916363 126.353756 510.87948 126.353756L510.87948 126.353756zM542.90487 180.714851 542.90487 180.714851c-8.248871-8.024767-19.652596-13.341866-32.025391-13.341866-12.621459 0-24.273846 5.317099-32.771381 13.341866-8.000208 8.471952-13.09218 19.652596-13.09218 32.249495 0 12.618389 5.091972 24.025183 13.340843 32.050973 8.248871 8.720615 19.901259 13.56597 32.522718 13.56597 11.876492 0 22.808472-4.596691 31.05632-12.128225l0.969071-1.437745c8.248871-8.024767 13.093203-19.432585 13.093203-32.050973C555.998073 200.367447 551.153742 189.186803 542.90487 180.714851L542.90487 180.714851zM590.930677 179.969884 590.930677 179.969884c3.900843 10.211573 6.310729 21.366633 6.310729 32.994462 0 16.994046-4.844332 32.522718-13.093203 45.61592l87.332021 0c22.807449 0 43.205011-8.969279 57.267285-23.280216 15.055904-15.055904 23.77652-34.932604 23.77652-57.268308 0-22.808472-8.720615-43.181475-23.77652-57.492412-14.062274-14.808264-34.46086-23.77652-57.267285-23.77652-22.312168 0-42.462091 8.969279-56.772005 23.77652-14.781658 14.310937-23.77652 34.68394-23.77652 57.492412L590.9317 179.969884 590.930677 179.969884zM346.377892 258.580267l90.486874 0 0 0 0 0c-8.000208-13.093203-12.844539-28.621874-12.844539-45.61592 0-9.689686 1.439792-18.907629 4.347005-27.652803-0.969071-2.409886-1.440815-4.844332-1.440815-7.2798 0-22.808472-8.993838-43.181475-23.77652-57.492412-14.560624-14.808264-34.461883-23.77652-56.773028-23.77652-22.335704 0-42.957371 8.969279-57.267285 23.77652-15.056927 14.310937-23.777543 34.68394-23.777543 57.492412 0 22.335704 8.720615 42.212404 23.777543 57.268308" p-id="7854" data-spm-anchor-id="a313x.7781069.0.i44" class="selected" fill="#d81e06"></path></svg>