<?xml version="1.0" standalone="no"?><!DOCTYPE svg PUBLIC "-//W3C//DTD SVG 1.1//EN" "http://www.w3.org/Graphics/SVG/1.1/DTD/svg11.dtd"><svg t="1569718611462" class="icon" viewBox="0 0 1024 1024" version="1.1" xmlns="http://www.w3.org/2000/svg" p-id="10669" width="32" height="32" xmlns:xlink="http://www.w3.org/1999/xlink"><defs><style type="text/css"></style></defs><path d="M987.84 613.568c-54.016-28.224-281.984 129.92-323.968 129.92 0 0-77.952 22.528-185.984-39.552-107.968-56.512-185.92-112.96-185.92-112.96s-72-39.552-155.968 11.264c-36.032 22.592-72 39.552-72 39.552v288s65.984-73.408 155.968-73.408 293.952 90.368 293.952 90.368 77.952 33.92 137.984 0l353.92-248.512c24-11.264 30.016-62.08-17.984-84.672z m-377.92 50.816c173.952 0 317.888-135.552 317.888-299.328 0-163.712-144-299.264-317.888-299.264-174.016 0-317.952 129.92-317.952 293.632 0 163.776 144 304.96 317.952 304.96zM507.904 190.016l107.968 135.552 107.968-135.552h60.032l-131.968 169.408h96c5.952 0 5.952 5.632 5.952 5.632v16.96c0 5.632-6.016 5.632-6.016 5.632h-113.92v39.552h107.968c5.952 0 5.952 5.632 5.952 5.632v22.592c0 5.632-5.952 5.632-5.952 5.632H633.856v62.144c0 5.632-5.952 5.632-11.968 5.632h-24c-6.016 0-11.968-5.632-11.968-5.632v-62.08H483.84c-6.016 0-6.016 0-6.016-5.696v-16.896c0-5.696 6.016-5.696 6.016-5.696h107.968v-45.184H483.904c-6.016 0-6.016-5.632-6.016-5.632v-16.96c0-5.632 6.016-5.632 6.016-5.632h96L447.936 190.08h59.968z" fill="#d81e06" p-id="10670" data-spm-anchor-id="a313x.7781069.0.i61" class="selected"></path></svg>