<?xml version="1.0" standalone="no"?><!DOCTYPE svg PUBLIC "-//W3C//DTD SVG 1.1//EN" "http://www.w3.org/Graphics/SVG/1.1/DTD/svg11.dtd"><svg t="1569718575985" class="icon" viewBox="0 0 1024 1024" version="1.1" xmlns="http://www.w3.org/2000/svg" p-id="9769" width="32" height="32" data-spm-anchor-id="a313x.7781069.0.i58" xmlns:xlink="http://www.w3.org/1999/xlink"><defs><style type="text/css"></style></defs><path d="M511.274667 21.589333C241.28 21.589333 22.4 240.469333 22.4 510.506667c0 269.952 218.88 488.874667 488.874667 488.874666 269.952 0 488.832-218.88 488.832-488.874666S781.226667 21.589333 511.274667 21.589333z m0 928.554667c-242.816 0-439.68-196.864-439.68-439.637333 0-242.816 196.864-439.68 439.68-439.68 242.773333 0 439.637333 196.864 439.637333 439.68 0 242.773333-196.864 439.637333-439.637333 439.637333z m-42.453334-253.994667c14.336 0 25.941333-12.8 25.941334-28.586666v-153.173334l186.453333 0.213334a30.378667 30.378667 0 0 0 12.458667-2.688 28.330667 28.330667 0 0 0 17.92-27.093334V321.877333a28.458667 28.458667 0 0 0-17.621334-26.922666 31.146667 31.146667 0 0 0-12.8-2.858667l-209.792-0.298667-1.408 0.128c-0.426667 0-0.768-0.128-1.152-0.128a24.661333 24.661333 0 0 0-18.005333 8.021334l-0.725333 0.810666a24.661333 24.661333 0 0 0-7.296 17.194667l0.128 1.152c0 0.512-0.128 0.938667-0.128 1.450667v347.136c0 15.786667 11.648 28.586667 26.026666 28.586666z m25.941334-352.298666l164.821333 0.170666v34.005334l-164.821333-0.256v-33.92z m0 85.930666l164.821333 0.213334v32.597333l-164.821333-0.213333v-32.597334z m209.024 291.541334H364.330667c0.085333-0.810667 0.256-1.578667 0.256-2.432v-246.442667a26.794667 26.794667 0 0 0-16.512-25.386667 30.592 30.592 0 0 0-14.933334-3.84H278.186667c-15.786667 0-28.586667 11.605333-28.586667 25.984 0 14.336 12.8 25.984 28.586667 25.984h37.461333v223.701334c0 0.853333 0.170667 1.621333 0.256 2.432h-29.781333c-14.848 0-26.922667 10.965333-26.922667 24.490666 0 13.525333 12.074667 24.490667 26.922667 24.490667h417.706666c14.848 0 26.88-10.965333 26.88-24.490667 0-13.525333-12.032-24.490667-26.88-24.490666z m-386.986667-336.768c5.077333 13.994667 19.498667 21.589333 32.213333 16.981333 12.672-4.650667 18.858667-19.712 13.781334-33.706667l-22.698667-60.16c-5.12-13.994667-19.498667-21.589333-32.213333-16.938666-12.714667 4.608-18.858667 19.712-13.781334 33.706666l22.698667 60.16z m364.885333 194.858666c7.424-12.885333 3.968-28.8-7.765333-35.584-11.690667-6.741333-27.221333-1.792-34.645333 11.093334l-22.570667 33.706666c-0.554667 0.981333-0.64 2.005333-1.066667 2.986667l-61.098666-48.085333c-11.392-9.557333-27.690667-8.917333-36.352 1.450666-8.704 10.368-6.528 26.453333 4.906666 36.053334l140.586667 110.762666c11.392 9.557333 27.690667 8.917333 36.394667-1.450666 8.661333-10.325333 6.485333-26.453333-4.906667-36.053334l-42.581333-33.536a28.928 28.928 0 0 0 6.528-7.68l22.570666-33.706666z" fill="#d81e06" p-id="9770" data-spm-anchor-id="a313x.7781069.0.i59" class="selected"></path></svg>