<?xml version="1.0" standalone="no"?><!DOCTYPE svg PUBLIC "-//W3C//DTD SVG 1.1//EN" "http://www.w3.org/Graphics/SVG/1.1/DTD/svg11.dtd"><svg t="1569720989444" class="icon" viewBox="0 0 1024 1024" version="1.1" xmlns="http://www.w3.org/2000/svg" p-id="11830" width="32" height="32" xmlns:xlink="http://www.w3.org/1999/xlink"><defs><style type="text/css"></style></defs><path d="M779.71 569.473c-44.123 64.146-104.933 141.27-157.585 186.877-38.562 33-109.383 84.17-165.371 74.9-144.236-24.101-113.462-376.721-210.237-456.069-44.495-12.978-65.63 55.247-90.102 14.831-38.191-31.887 37.079-87.506 75.27-119.765 46.719-39.675 102.708-96.035 165.001-71.562 121.619 47.832 34.483 337.788 150.169 400.822 59.697-47.832 126.809-127.18 112.719-224.327-11.495-32.258-66.001-22.248-97.517-14.831-1.853-148.315 291.069-261.777 315.171-60.067 12.978 123.472-97.517 269.192-97.517 269.192v0zM779.71 569.473z" fill="#bfbfbf" p-id="11831" data-spm-anchor-id="a313x.7781069.0.i68" class="selected"></path></svg>