<?xml version="1.0" standalone="no"?><!DOCTYPE svg PUBLIC "-//W3C//DTD SVG 1.1//EN" "http://www.w3.org/Graphics/SVG/1.1/DTD/svg11.dtd"><svg class="icon" width="32px" height="32.00px" viewBox="0 0 1024 1024" version="1.1" xmlns="http://www.w3.org/2000/svg"><path d="M791.2 527.3c0.1-0.2 0.2-0.5 0.3-0.7 0.1-0.3 0.3-0.5 0.4-0.8 0.1-0.1 0.1-0.3 0.2-0.4 0.2-0.4 0.3-0.7 0.4-1.1v-0.1c1.3-3.4 1.9-6.8 2-10.3v-0.7-0.7c0-1.9-0.3-3.7-0.6-5.6 0-0.2-0.1-0.3-0.1-0.5s-0.1-0.4-0.1-0.5c-0.1-0.3-0.2-0.7-0.3-1v-0.1c-2.1-7.7-7.2-14.7-14.7-19L278.9 197.2c-15.1-8.7-34.5-3.5-43.2 11.6s-3.5 34.5 11.6 43.2l452.4 261.2-452.4 261.2c-15.1 8.7-20.3 28.1-11.6 43.2 8.7 15.1 28.1 20.3 43.2 11.6l499.8-288.6c0.2-0.1 0.5-0.3 0.7-0.4 0 0 0.1 0 0.1-0.1 0.4-0.2 0.8-0.5 1.1-0.7 0.1 0 0.1-0.1 0.2-0.1 0.3-0.2 0.7-0.5 1-0.7 0.1-0.1 0.2-0.1 0.3-0.2 0.3-0.2 0.6-0.5 1-0.8 0.1-0.1 0.2-0.2 0.3-0.2 0.3-0.3 0.6-0.5 0.9-0.8 0.1-0.1 0.2-0.2 0.3-0.2 0.3-0.3 0.6-0.5 0.9-0.8l0.3-0.3c0.3-0.3 0.6-0.6 0.8-0.9 0.1-0.1 0.2-0.2 0.2-0.3 0.3-0.3 0.5-0.6 0.8-0.9 0.1-0.1 0.2-0.2 0.2-0.3 0.3-0.3 0.5-0.6 0.7-1 0.1-0.1 0.1-0.2 0.2-0.3 0.2-0.3 0.5-0.7 0.7-1 0.1-0.1 0.2-0.2 0.2-0.3 0.2-0.3 0.4-0.6 0.6-1 0-0.1 0.1-0.2 0.1-0.2 0-0.1 0.1-0.1 0.1-0.2 0.2-0.3 0.3-0.6 0.5-0.9 0.1-0.3 0.2-0.5 0.3-0.7z" fill="#707070" /></svg>