<?xml version="1.0" standalone="no"?><!DOCTYPE svg PUBLIC "-//W3C//DTD SVG 1.1//EN" "http://www.w3.org/Graphics/SVG/1.1/DTD/svg11.dtd"><svg t="1569563472663" class="icon" viewBox="0 0 1097 1024" version="1.1" xmlns="http://www.w3.org/2000/svg" p-id="2897" width="34.28125" height="32" xmlns:xlink="http://www.w3.org/1999/xlink"><defs><style type="text/css"></style></defs><path d="M881.643 94.143h-675a79.714 79.714 0 0 0-80.357 80.357v511.071a80.357 80.357 0 0 0 80.357 83.572h138.214v115.714a44.036 44.036 0 0 0 45 45A57.214 57.214 0 0 0 422 917l147.857-147.857H878.43a79.714 79.714 0 0 0 80.357-80.357V174.5a75.214 75.214 0 0 0-77.143-80.357zM643.786 569.857H296.643a41.786 41.786 0 0 1 0-83.571h347.143a41.786 41.786 0 0 1 0 83.571zM791.643 377h-495a40.5 40.5 0 0 1-41.786-41.786 42.429 42.429 0 0 1 41.786-41.785h495a42.429 42.429 0 0 1 41.786 41.785A40.5 40.5 0 0 1 791.643 377z" p-id="2898" fill="#ffffff"></path></svg>