<?xml version="1.0" standalone="no"?><!DOCTYPE svg PUBLIC "-//W3C//DTD SVG 1.1//EN" "http://www.w3.org/Graphics/SVG/1.1/DTD/svg11.dtd"><svg class="icon" width="32px" height="32.00px" viewBox="0 0 1024 1024" version="1.1" xmlns="http://www.w3.org/2000/svg"><path d="M210.4 429.5c-13.8 0-25-11.2-25-25V291.9c0-56.9 46.3-103.1 103.1-103.1H412c13.8 0 25 11.2 25 25s-11.2 25-25 25H288.5c-29.3 0-53.1 23.8-53.1 53.1v112.7c0 13.8-11.2 24.9-25 24.9zM412 837.1H288.5c-56.9 0-103.1-46.3-103.1-103.1V621.3c0-13.8 11.2-25 25-25s25 11.2 25 25V734c0 29.3 23.8 53.1 53.1 53.1H412c13.8 0 25 11.2 25 25s-11.2 25-25 25zM815.8 429.5c-13.8 0-25-11.2-25-25V291.9c0-29.3-23.8-53.1-53.1-53.1h-118c-13.8 0-25-11.2-25-25s11.2-25 25-25h118c56.9 0 103.1 46.3 103.1 103.1v112.7c0 13.8-11.2 24.9-25 24.9zM814.4 537.3h-604c-13.8 0-25-11.2-25-25s11.2-25 25-25h604c13.8 0 25 11.2 25 25s-11.2 25-25 25zM738.1 837.1H614.7c-13.8 0-25-11.2-25-25s11.2-25 25-25h123.5c29.3 0 53.1-23.8 53.1-53.1V621.3c0-13.8 11.2-25 25-25s25 11.2 25 25V734c0 56.9-46.3 103.1-103.2 103.1z" fill="#707070" /></svg>