<?xml version="1.0" standalone="no"?><!DOCTYPE svg PUBLIC "-//W3C//DTD SVG 1.1//EN" "http://www.w3.org/Graphics/SVG/1.1/DTD/svg11.dtd"><svg class="icon" width="32px" height="32.00px" viewBox="0 0 1024 1024" version="1.1" xmlns="http://www.w3.org/2000/svg"><path d="M667.30496 921.5488H303.5136v-43.54048h363.79136c23.08608 0 41.87136-18.78528 41.87136-41.87136 0.0256-2.71872 2.41152-252.25728 0.01024-338.50368-0.43008-15.42656 9.1904-28.12416 25.09824-33.13664 18.97984-5.97504 47.91808-0.78848 59.1104 16.19968 3.85024 5.84192 6.44096 9.15456 8.11008 11.01824 2.56512-1.88416 7.02464-5.74976 14.4384-13.65504 13.40416-14.28992 21.00736-21.41696 30.62784-30.4384 13.80352-12.94336 32.70656-30.6688 82.19648-82.2528 4.0448-4.21888 6.53312-7.09632 8.05376-9.03168a229.44768 229.44768 0 0 0-4.70528-5.16096c-37.9392-40.77056-177.91488-185.32864-226.9184-234.35776l30.79168-30.78144c45.36832 45.38368 186.9824 191.39584 228.00384 235.47904 25.34912 27.24352 24.45824 44.53376-3.80416 73.99936-50.28352 52.41344-69.67296 70.59456-83.82976 83.8656-9.41568 8.82688-16.20992 15.20128-28.66176 28.4672-14.5152 15.48288-30.3872 30.46912-50.24768 28.74368-18.0224-1.54624-29.61408-15.83104-38.97856-29.78816-1.4336-0.5376-3.51232-0.92672-5.53472-1.09568 2.03264 94.26944-0.19456 328.20224-0.22016 330.63424 0 46.89408-38.31808 85.20704-85.41184 85.20704z" fill="#ffe8e8" /><path d="M685.7472 942.52032H344.36608c-49.64864 0-90.04544-40.3968-90.04544-90.04544-0.01024-2.0992-1.01376-187.75552-0.4608-294.66112-20.6336 9.43104-45.86496 5.66272-62.8224-11.29472L40.2688 395.74016c-21.69856-21.69856-22.12352-55.9872-0.9728-78.06464 41.64608-43.48416 120.77056-125.79328 182.73792-188.52864 3.64032-3.6864 6.9888-7.10656 10.0864-10.27072 25.82016-26.38336 38.74304-39.76192 61.312-39.19872h38.61504c15.91296 0 31.11424 6.93248 41.69728 19.01568 16.64 19.00032 71.5008 38.23616 144.1536 38.23616s127.5136-19.23584 144.15872-38.23616a55.4752 55.4752 0 0 1 41.69728-19.01568h35.13344l1.90464 0.34304c16.11264 2.8928 28.09344 10.84928 51.28192 34.03776 49.5872 49.60256 145.16224 148.83328 197.71904 203.5712 21.2224 22.09792 20.82304 56.42752-0.896 78.15168l-150.74304 150.74304c-16.76288 16.768-41.62048 20.64896-62.14144 11.60192 0.29184 108.50816-0.22016 292.25472-0.22528 294.41536 0 49.58208-40.39168 89.97888-90.04032 89.97888zM274.89792 486.55872c2.45248 0 5.00736 0.44032 7.69536 1.3568 9.29792 3.16416 15.4368 12.0832 15.26272 22.1952-1.40288 82.29888-0.01024 339.65056 0 342.24128 0 25.76384 20.864 46.62272 46.50496 46.62272h341.376c25.64608 0 46.50496-20.85888 46.50496-46.50496 0.00512-2.5856 0.70144-253.60896 0-341.64224-0.08704-10.04544 6.08768-18.88256 15.36512-21.98528 16.47104-5.49376 27.92448 7.26528 43.15648 27.6992 4.73088 3.88608 12.2112 3.56352 16.59392-0.80896l150.74304-150.74304c4.80256-4.80256 4.93056-12.35968 0.27648-17.2032-42.21952-43.97056-145.9456-151.76704-197.10464-202.94144-17.4848-17.49504-23.28064-20.70016-26.59328-21.62688h-30.92992c-3.41504 0-6.58944 1.47968-8.94464 4.16256-28.24704 32.25088-97.6896 53.08928-176.91136 53.08928-79.22176 0-148.66432-20.8384-176.91136-53.08928a11.79648 11.79648 0 0 0-8.94464-4.16256l-39.5008-0.00512h-0.04608c-3.69664 0-16.11264 12.69248-29.2608 26.12736-3.13856 3.20512-6.53312 6.67648-10.22976 10.41408-61.76256 62.53056-140.70784 144.66048-182.272 188.05248-4.62336 4.82304-4.48 12.35968 0.32256 17.16224l150.77376 150.77376a12.39552 12.39552 0 0 0 16.60416 0.80384c13.5936-18.2016 23.74656-29.98784 36.46976-29.98784z"  /><path d="M620.3136 467.34336c0-36.59776-26.19904-66.26304-58.5216-66.26304-17.50016 0-33.16736 8.74496-43.89376 22.53824-10.7264-13.78816-26.38848-22.53824-43.89376-22.53824-32.32256 0-58.5216 29.6704-58.5216 66.26304 0 10.79808 1.19808 21.74464 6.37952 29.97248 4.59776 7.30112 11.90912 15.58528 24.87296 28.0064 26.58304 25.48224 71.16288 80.57856 71.16288 80.57856s44.57984-55.09632 71.16288-80.57856c12.96384-12.42624 20.28032-20.7104 24.87296-28.0064 5.18144-8.23296 6.37952-19.1744 6.37952-29.97248z" fill="#fb2f19" /></svg>